<svg xmlns="http://www.w3.org/2000/svg" viewBox="0 0 512 512" role="img" aria-label="JuniperFox icon">
  <defs>
    <linearGradient id="bg" x1="0" y1="0" x2="1" y2="1">
      <stop offset="0" stop-color="#1a1a20" />
      <stop offset="1" stop-color="#0a0a0c" />
    </linearGradient>
    <linearGradient id="fox" x1="0" y1="0" x2="1" y2="1">
      <stop offset="0" stop-color="#f4a44a" />
      <stop offset="1" stop-color="#e0933a" />
    </linearGradient>
  </defs>

  <rect x="20" y="20" width="472" height="472" rx="104" fill="url(#bg)" />
  <path
    fill="url(#fox)"
    d="M380 132c-56 4-106 33-147 80-24 27-42 58-53 92-8 25-12 52-11 79 1 18 4 35 9 51 1 4-1 9-6 10-4 1-8-1-9-5-11-22-18-47-20-73-4-45 7-89 30-127 19-31 45-59 76-80 39-27 83-42 131-44z"
  />
  <path
    fill="#fff5ea"
    d="M319 161c-35 7-67 28-94 58-16 18-29 40-37 63 13-16 28-31 46-45 28-21 60-33 92-37 5-1 9-6 8-12-1-5-7-9-15-7z"
    opacity="0.9"
  />
</svg>
